Coordinates
version=1
nRows=6
nColumns=36
inDegrees=yes

Units are S.I. units (second, meters, Newtons, ...)
If the header above contains a line with 'inDegrees', this indicates whether rotational values are in degrees (yes) or radians (no).

endheader
time	pelvis_tilt	pelvis_list	pelvis_rotation	pelvis_tx	pelvis_ty	pelvis_tz	hip_flexion_r	hip_adduction_r	hip_rotation_r	knee_angle_r	knee_angle_r_beta	ankle_angle_r	subtalar_angle_r	mtp_angle_r	hip_flexion_l	hip_adduction_l	hip_rotation_l	knee_angle_l	knee_angle_l_beta	ankle_angle_l	subtalar_angle_l	mtp_angle_l	lumbar_extension	lumbar_bending	lumbar_rotation	arm_flex_r	arm_add_r	arm_rot_r	elbow_flex_r	pro_sup_r	arm_flex_l	arm_add_l	arm_rot_l	elbow_flex_l	pro_sup_l
      2.46666670	     -5.97624051	      0.31943213	     -7.61595219	      0.14667049	      0.79170086	     -0.12685219	     45.71742952	    -11.12549109	     -5.00041221	     67.90312744	      1.18513315	     29.27418296	    -14.57145833	     -7.49999987	     43.03245949	     -7.70014779	     -0.71898671	     65.22728014	      1.13843080	     31.30748235	     -9.42460646	     -7.49999987	    -18.53597953	      1.80403242	      1.58336008	     45.31959936	      0.52798156	     60.20549963	    127.42196221	     92.69381704	     40.16953459	      0.68143115	     65.13430132	    132.82177821	     90.96142501
      2.48333330	     -6.14014817	      0.37169095	     -7.56678792	      0.13918751	      0.78680402	     -0.13075113	     46.11218226	    -11.34572927	     -5.10890134	     68.11137466	      1.18876775	     29.20418637	    -14.72048441	     -7.49999987	     43.50295451	     -7.69587069	     -0.78586152	     65.65286246	      1.14585861	     31.11914996	     -9.49117216	     -7.49999987	    -18.66786243	      1.89436122	      1.76753611	     46.69438133	      0.43077469	     59.79970752	    127.16840801	     92.77777510	     41.10805380	      1.22562309	     64.70575861	    132.82171597	     91.03982739
      2.50000000	     -6.18758592	      0.34253963	     -7.57544219	      0.14008163	      0.78019111	     -0.13019097	     46.64499046	    -11.46935906	     -5.18297515	     68.62058654	      1.19765517	     29.09643816	    -14.88519524	     -7.49999987	     44.11137081	     -7.77757971	     -0.85295958	     66.36989765	      1.15837324	     31.15179845	     -9.75382027	     -7.49999987	    -18.70807687	      1.95508519	      1.72612270	     47.56745428	      0.40246673	     58.84123989	    127.08449216	     92.80165059	     41.82560181	      1.41567185	     64.10978506	    132.84237372	     91.09903500
      2.51666670	     -6.27988206	      0.37050941	     -7.57599844	      0.13889113	      0.78360616	     -0.13092409	     47.06190430	    -11.67726356	     -5.29158148	     68.82508978	      1.20122442	     28.64616265	    -15.36524500	     -7.49999987	     44.58035857	     -7.70395710	     -0.81622004	     66.73399918	      1.16472801	     31.02509695	    -10.13275049	     -7.49999987	    -18.56458323	      1.98441212	      1.82881505	     48.01917854	      0.20470082	     56.94686394	    126.54613062	     92.94800888	     42.08380819	      1.63629265	     63.22506205	    132.98310211	     91.36097432
      2.53333330	     -6.43494193	      0.44801446	     -7.63235322	      0.14026836	      0.77957207	     -0.13002847	     47.62477037	    -11.86666723	     -5.29603362	     69.29927121	      1.20950045	     28.46763828	    -15.64590646	     -7.49999987	     45.05752226	     -7.66171935	     -0.81646493	     67.14235026	      1.17185508	     31.02572000	    -10.34832194	     -7.49999987	    -18.31843185	      1.93766741	      1.73609079	     48.23275021	      0.12020708	     56.53386871	    126.65022293	     94.60117082	     42.20507637	      1.65629016	     62.72540080	    132.97439185	     93.51253868
      2.55000000	     -6.26264352	      0.39380512	     -7.66401627	      0.14796930	      0.77784193	     -0.12605057	     47.55878024	    -11.88232575	     -5.30831854	     69.67922609	      1.21613192	     28.51566646	    -15.71532433	     -7.49999987	     44.93917879	     -7.68337775	     -0.70146511	     67.37245875	      1.17587123	     31.11519834	    -10.42965613	     -7.49999987	    -18.23744449	      1.88170229	      1.75063576	     47.87507404	      0.21637135	     56.64824672	    126.78722634	     94.61059132	     41.74298676	      1.42857390	     62.88387568	    132.95391230	     93.52020008
